<svg width="129mm" height="126mm" version="1.1" viewBox="0 0 129 126" xmlns="http://www.w3.org/2000/svg">
 <g transform="translate(-68.8 -91.8)" stroke-linejoin="round">
  <g stroke="#000">
   <path d="m133 94.2a45.2 45.2 0 0 0-5.05 0.284 45.2 45.2 0 0 0-5.05 0.862 45.2 45.2 0 0 0-5.05 1.48 45.2 45.2 0 0 0-4.96 2.11 45.2 45.2 0 0 0-0.0914 0.0454 45.2 45.2 0 0 0-5.05 2.95 45.2 45.2 0 0 0-2.8 2.05 45.2 45.2 0 0 0-2.25 1.91 45.2 45.2 0 0 0-3.14 3.14 45.2 45.2 0 0 0-1.91 2.25 45.2 45.2 0 0 0-2.05 2.8 45.2 45.2 0 0 0-2.95 5.05 45.2 45.2 0 0 0-0.046 0.0919 45.2 45.2 0 0 0-2.11 4.96 45.2 45.2 0 0 0-1.47 5.05 45.2 45.2 0 0 0-0.862 5.05 45.2 45.2 0 0 0-0.284 5.05 45.2 45.2 0 0 0 0.284 5.05 45.2 45.2 0 0 0 0.862 5.05 45.2 45.2 0 0 0 1.47 5.05 45.2 45.2 0 0 0 2.11 4.96 45.2 45.2 0 0 0 0.046 0.092 45.2 45.2 0 0 0 2.95 5.05 45.2 45.2 0 0 0 2.05 2.8 45.2 45.2 0 0 0 1.91 2.25 45.2 45.2 0 0 0 0.898 0.963 45.2 45.2 0 0 0 2.25 2.18 45.2 45.2 0 0 0 2.25 1.91 45.2 45.2 0 0 0 2.8 2.05 45.2 45.2 0 0 0 5.05 2.95 45.2 45.2 0 0 0 0.0914 0.0455 45.2 45.2 0 0 0 4.96 2.11 45.2 45.2 0 0 0 5.05 1.48 45.2 45.2 0 0 0 5.05 0.862 45.2 45.2 0 0 0 5.05 0.284 45.2 45.2 0 0 0 5.05-0.284 45.2 45.2 0 0 0 5.05-0.862 45.2 45.2 0 0 0 5.05-1.48 45.2 45.2 0 0 0 4.96-2.11 45.2 45.2 0 0 0 0.0914-0.0455 45.2 45.2 0 0 0 5.05-2.95 45.2 45.2 0 0 0 2.8-2.05 45.2 45.2 0 0 0 2.25-1.91 45.2 45.2 0 0 0 3.14-3.14 45.2 45.2 0 0 0 1.91-2.25 45.2 45.2 0 0 0 2.05-2.8 45.2 45.2 0 0 0 2.95-5.05 45.2 45.2 0 0 0 0.046-0.092 45.2 45.2 0 0 0 2.11-4.96 45.2 45.2 0 0 0 1.47-5.05 45.2 45.2 0 0 0 0.862-5.05 45.2 45.2 0 0 0 0.284-5.05 45.2 45.2 0 0 0-0.284-5.05 45.2 45.2 0 0 0-0.862-5.05 45.2 45.2 0 0 0-1.47-5.05 45.2 45.2 0 0 0-2.11-4.96 45.2 45.2 0 0 0-0.046-0.0919 45.2 45.2 0 0 0-2.95-5.05 45.2 45.2 0 0 0-2.05-2.8 45.2 45.2 0 0 0-1.91-2.25 45.2 45.2 0 0 0-3.14-3.14 45.2 45.2 0 0 0-2.25-1.91 45.2 45.2 0 0 0-2.8-2.05 45.2 45.2 0 0 0-5.05-2.95 45.2 45.2 0 0 0-0.0914-0.0454 45.2 45.2 0 0 0-4.96-2.11 45.2 45.2 0 0 0-5.05-1.48 45.2 45.2 0 0 0-5.05-0.862 45.2 45.2 0 0 0-5.05-0.284zm-1e-3 4.73h2e-3a40.4 40.4 0 0 1 5.05 0.317 40.4 40.4 0 0 1 5.05 0.967 40.4 40.4 0 0 1 5.05 1.67 40.4 40.4 0 0 1 4.41 2.1 40.4 40.4 0 0 1 0.642 0.363 40.4 40.4 0 0 1 5.05 3.45 40.4 40.4 0 0 1 1.47 1.24 40.4 40.4 0 0 1 3.58 3.58 40.4 40.4 0 0 1 1.24 1.47 40.4 40.4 0 0 1 1.36 1.8l-12.3 18.4-6.74 10.1a22.8 15.2 0 0 1-1.57 2.35l-8.27 12.4-0.271 0.406h6.31a30.3 20.2 0 0 0 0.0183 0 30.3 20.2 0 0 0 5.04-0.28 30.3 20.2 0 0 0 5.05-0.87 30.3 20.2 0 0 0 4.37-1.29 30.3 20.2 0 0 0 0.68-0.253 30.3 20.2 0 0 0 4.92-2.36 30.3 20.2 0 0 0 0.128-0.0757 30.3 20.2 0 0 0 5.05-3.88 30.3 20.2 0 0 0 1.03-1.1 30.3 20.2 0 0 0 3.1-5.05 30.3 20.2 0 0 0 0.82-3.35 40.4 40.4 0 0 1-0.21 3.35 40.4 40.4 0 0 1-0.967 5.05 40.4 40.4 0 0 1-1.67 5.05 40.4 40.4 0 0 1-2.1 4.41 40.4 40.4 0 0 1-0.363 0.642 40.4 40.4 0 0 1-3.45 5.05 40.4 40.4 0 0 1-1.24 1.47 40.4 40.4 0 0 1-3.58 3.58 40.4 40.4 0 0 1-1.47 1.24 40.4 40.4 0 0 1-5.05 3.45 40.4 40.4 0 0 1-0.642 0.363 40.4 40.4 0 0 1-4.41 2.1 40.4 40.4 0 0 1-5.05 1.67 40.4 40.4 0 0 1-5.05 0.967 40.4 40.4 0 0 1-5.04 0.317 40.4 40.4 0 0 1-0.0152 0 40.4 40.4 0 0 1-0.0152 0 40.4 40.4 0 0 1-5.04-0.317 40.4 40.4 0 0 1-5.05-0.967 40.4 40.4 0 0 1-5.05-1.67 40.4 40.4 0 0 1-4.41-2.1 40.4 40.4 0 0 1-0.467-0.263l13.2-19.8 0.0742-0.111 13.5-20.2h-15.1l-9.05 13.6-2.81 4.22-0.011 0.0162-3.83 5.74-5.83 8.74a40.4 40.4 0 0 1-0.449-0.5 40.4 40.4 0 0 1-1.24-1.47 40.4 40.4 0 0 1-3.45-5.05 40.4 40.4 0 0 1-0.363-0.642 40.4 40.4 0 0 1-2.1-4.41 40.4 40.4 0 0 1-1.67-5.05 40.4 40.4 0 0 1-0.967-5.05 40.4 40.4 0 0 1-0.317-5.05v-1e-3a40.4 40.4 0 0 1 0.317-5.05 40.4 40.4 0 0 1 0.967-5.05 40.4 40.4 0 0 1 1.67-5.05 40.4 40.4 0 0 1 2.1-4.41 40.4 40.4 0 0 1 0.363-0.642 40.4 40.4 0 0 1 3.45-5.05 40.4 40.4 0 0 1 1.24-1.47 40.4 40.4 0 0 1 3.58-3.58 40.4 40.4 0 0 1 1.47-1.24 40.4 40.4 0 0 1 5.05-3.45 40.4 40.4 0 0 1 0.642-0.363 40.4 40.4 0 0 1 4.41-2.1 40.4 40.4 0 0 1 5.05-1.67 40.4 40.4 0 0 1 5.05-0.967 40.4 40.4 0 0 1 5.05-0.317z" stroke-width=".645" style="paint-order:stroke fill markers"/>
   <path d="m116 114c-1.19 0.795-2.33 1.67-3.4 2.63-0.853 0.762-1.66 1.57-2.42 2.43-0.956 1.07-1.84 2.21-2.63 3.41-0.357 0.538-0.697 1.09-1.02 1.65-0.927 1.61-1.7 3.3-2.32 5.05-0.58 1.64-1.02 3.33-1.31 5.05-0.223 1.32-0.358 2.66-0.404 4v0.0465c0.144-1.38 0.57-2.74 1.26-4.05 0.87-1.63 2.15-3.16 3.79-4.5 0.229-0.188 0.464-0.372 0.706-0.553h34.7l10.1-15.2h-35.4z" stroke-linecap="square" stroke-width=".434" style="paint-order:stroke fill markers"/>
   <path d="m180 139a47 47 0 0 1-47 47 47 47 0 0 1-47-47 47 47 0 0 1 47-47 47 47 0 0 1 47 47z" fill="none" stroke-linecap="square" stroke-width="1.06" style="paint-order:stroke fill markers"/>
  </g>
  <path d="m73.7 214h10.6l-0.466 3.48h-15v-3.26l10.6-15h-9.47v-3.39h14.3v3.29zm29.8-7.37c0 2.27-0.316 4.25-0.947 5.95-0.631 1.69-1.57 3.02-2.81 3.97-1.23 0.941-2.76 1.41-4.59 1.41-1.83 0-3.37-0.46-4.61-1.38-1.23-0.92-2.16-2.23-2.79-3.92-0.631-1.69-0.947-3.7-0.947-6.01 0-2.26 0.316-4.24 0.947-5.93 0.631-1.7 1.56-3.03 2.79-3.97 1.24-0.952 2.78-1.43 4.61-1.43 1.83 0 3.36 0.465 4.59 1.4 1.24 0.92 2.18 2.23 2.81 3.92 0.631 1.69 0.947 3.69 0.947 5.99zm-4.38 0c0-2.74-0.31-4.77-0.931-6.09-0.611-1.33-1.62-1.99-3.04-1.99-1.42 0-2.44 0.664-3.06 1.99-0.611 1.33-0.916 3.36-0.916 6.1 0 2.75 0.316 4.78 0.947 6.1 0.631 1.31 1.64 1.96 3.03 1.96 1.44 0 2.46-0.664 3.06-1.99 0.611-1.33 0.916-3.36 0.916-6.09zm16.7 10.9-6.32-18c0.0621 0.512 0.145 1.24 0.248 2.18 0.103 0.931 0.191 1.98 0.264 3.15 0.0828 1.16 0.124 2.35 0.124 3.56v9.13h-3.69v-21.7h5.4l6.26 18c-0.114-0.805-0.248-1.98-0.404-3.53-0.155-1.56-0.233-3.31-0.233-5.25v-9.21h3.69v21.7zm19.3-8.19h-5.51l-2.1 8.19h-4.39l6.72-21.7h5.22l6.71 21.7h-4.52zm-5.51 0h5.51l-2.75-10.3zm15.4-10.3v5.95h11.9v3.12h-11.9v6.31h13.5v3.15h-13.5v-21.7h13.4l-0.435 3.17zm32.6 3.25c0 1.58-0.45 2.86-1.35 3.84-0.89 0.973-1.98 1.68-3.28 2.12l5.88 9.32h-4.87l-5.08-8.64h-1.96v8.64h-4.24v-21.7h6.32c2.83 0 4.96 0.528 6.4 1.58 1.45 1.06 2.17 2.67 2.17 4.83zm-4.41 0c0-1.16-0.336-2-1.01-2.53s-1.69-0.784-3.04-0.784h-2.19v6.9h2.33c1.25 0 2.21-0.277 2.89-0.831 0.683-0.565 1.02-1.48 1.02-2.76zm18.7 10.3h-7.06l-1.33 4.97h-4.39l6.72-21.7h5.22l6.71 21.7h-4.52zm-6.3-3.22h5.51l-2.75-10.3z" stroke-linecap="square" stroke-width="1.43" style="paint-order:stroke fill markers" aria-label="ZONAERA"/>
 </g>
</svg>
